<svg width="664" height="112" viewBox="0 0 664 112" fill="none" xmlns="http://www.w3.org/2000/svg">
<path d="M653.196 56.3518C653.196 46.9197 651.796 40.564 648.995 37.2849C646.195 33.9689 642.216 32.3109 637.058 32.3109C629.91 32.3109 625.286 35.8479 623.186 42.9221C622.044 46.7907 621.473 51.4515 621.473 56.9045C621.473 72.7476 626.668 80.6691 637.058 80.6691C647.816 80.6691 653.196 72.5634 653.196 56.3518ZM653.196 34.7426V1.63793L663.254 0.532593V87.0248H653.196V77.6295C649.106 84.8141 643.321 88.4065 635.842 88.4065C627.294 88.4065 621.067 85.3484 617.162 79.2322C613.293 73.116 611.359 65.434 611.359 56.186C611.359 45.059 614.196 36.5848 619.87 30.7634C623.849 26.6368 629.192 24.5736 635.897 24.5736C640.466 24.5736 644.169 25.5131 647.006 27.3922C649.88 29.2712 651.943 31.7214 653.196 34.7426Z" fill="#152249"/>
<path d="M594.116 87.0248H586.102C578.991 87.0248 573.907 86.2879 570.848 84.8141C569.08 83.9667 567.68 82.9903 566.648 81.885C563.922 79.048 562.503 72.7844 562.393 63.0944V8.26991H544.265V0.532593H572.451V62.597C572.451 69.929 573.114 74.424 574.441 76.082C575.804 77.74 577.499 78.698 579.525 78.9559C581.552 79.1769 583.615 79.2875 585.715 79.2875H594.613L594.116 87.0248Z" fill="#152249"/>
<path d="M491.32 84.2062C487.083 81.3691 483.933 77.5742 481.869 72.8212C479.843 68.0315 478.83 62.6338 478.83 56.6281C478.83 50.6225 479.769 45.2432 481.648 40.4903C483.564 35.7005 486.401 31.8503 490.159 28.9396C493.954 25.992 498.118 24.5182 502.65 24.5182C511.197 24.5182 517.461 27.4474 521.44 33.3056C525.419 39.1639 527.409 46.367 527.409 54.9149V58.2861H488.999C489.22 64.5128 490.767 69.8 493.641 74.1476C496.552 78.4953 500.899 80.6691 506.684 80.6691C510.553 80.3006 515.95 78.2005 522.877 74.3687L526.193 81.2218C521.403 86.0115 514.863 88.4064 506.573 88.4064C500.641 88.4064 495.557 87.0063 491.32 84.2062ZM517.793 50.9357C517.056 38.5191 512.708 32.3108 504.75 32.3108C495.76 32.3108 490.62 38.5191 489.33 50.9357H517.793Z" fill="#152249"/>
<path d="M430.445 10.5007V5.02926C430.445 3.70286 431.182 2.54226 432.656 1.54746C434.167 0.515822 435.659 0 437.133 0C438.606 0 440.08 0.515822 441.554 1.54746C443.065 2.54226 443.82 3.70286 443.82 5.02926V10.5007C443.82 11.827 443.065 13.0061 441.554 14.0377C440.08 15.0325 438.606 15.5299 437.133 15.5299C435.659 15.5299 434.167 15.0325 432.656 14.0377C431.182 13.0061 430.445 11.827 430.445 10.5007ZM414.805 34.21V26.4727H442.162V79.3628V87.1001H432.103V79.3628V34.21H414.805Z" fill="#152249"/>
<path d="M390.458 50.4383V87.0248H380.4V51.7094C380.4 44.1195 379.387 38.9981 377.36 36.3453C375.334 33.6557 372.276 32.3109 368.186 32.3109C364.059 32.3109 360.467 33.7478 357.409 36.6217C354.388 39.4587 352.877 42.5168 352.877 45.7959V87.0248H342.819V1.63793L352.877 0.532593V33.7478C357.593 27.6316 363.912 24.5736 371.834 24.5736C384.25 24.5736 390.458 33.1951 390.458 50.4383Z" fill="#152249"/>
<path d="M276.499 72.6002C282.394 77.4268 289.413 79.8401 297.555 79.8401C301.977 79.8401 305.385 78.4953 307.78 75.8056C310.174 73.0792 311.372 69.5605 311.372 65.2497C311.372 60.9389 310.119 57.6782 307.614 55.4676C305.145 53.22 302.142 51.3778 298.605 49.9409L295.289 48.6145C289.026 46.1091 284.678 43.9905 282.246 42.2588C279.851 40.5271 278.101 38.9428 276.996 37.5059C274.38 34.1162 273.072 29.9344 273.072 24.9604C273.072 18.0705 275.412 12.7281 280.091 8.93309C284.77 5.10127 290.794 3.18536 298.163 3.18536C307.448 3.18536 314.688 5.23023 319.883 9.31996L316.014 17.2783C311.224 13.5571 305.458 11.6964 298.716 11.6964C294.368 11.6964 290.905 12.8939 288.326 15.2887C285.783 17.6468 284.512 20.9628 284.512 25.2367C284.512 29.4738 286.852 32.9556 291.531 35.6821C293.3 36.6769 295.971 37.8744 299.545 39.2744C303.156 40.6745 306.748 42.3141 310.322 44.1932C313.933 46.0722 316.954 48.6145 319.385 51.82C321.817 55.0254 323.033 59.1151 323.033 64.0891C323.033 72.0107 320.73 78.0532 316.125 82.2166C311.556 86.3431 305.292 88.4064 297.334 88.4064C287.423 88.4064 279.17 86.2142 272.575 81.8297L276.499 72.6002Z" fill="#152249"/>
<path d="M233.612 88.1301C229.006 88.1301 224.824 87.3748 221.066 85.8641C217.308 84.3535 214.084 82.2902 211.395 79.6743C208.705 77.0952 206.623 74.0555 205.15 70.5553C203.713 67.0182 202.994 63.2417 202.994 59.2257V57.015C202.994 52.4463 203.713 48.2829 205.15 44.5247C206.586 40.7298 208.594 37.469 211.174 34.7426C213.753 32.0161 216.811 29.8975 220.348 28.3869C223.885 26.8763 227.735 26.121 231.899 26.121C236.209 26.121 240.041 26.8394 243.394 28.2764C246.784 29.6765 249.658 31.6661 252.016 34.2452C254.337 36.8243 256.105 39.9376 257.321 43.5852C258.537 47.196 259.145 51.1936 259.145 55.5781V62.0995H218.579V62.2653C219.095 64.6602 219.758 66.5945 220.569 68.0683C221.38 69.5052 222.466 70.8132 223.83 71.9922C225.23 73.2081 226.832 74.1476 228.638 74.8108C230.443 75.474 232.414 75.8056 234.551 75.8056C237.573 75.8056 240.502 75.2345 243.339 74.0924C246.176 72.9502 248.479 71.2369 250.247 68.9526L257.929 77.2426C255.976 80.0059 252.881 82.5113 248.644 84.7588C244.407 87.0063 239.396 88.1301 233.612 88.1301ZM231.788 38.556C230.056 38.556 228.472 38.8691 227.035 39.4955C225.598 40.085 224.345 40.9508 223.277 42.093C222.172 43.2352 221.251 44.5984 220.514 46.1827C219.777 47.767 219.224 49.5356 218.856 51.4883H244.057V50.2725C244.057 48.6513 243.762 47.1223 243.173 45.6853C242.583 44.2484 241.773 42.9957 240.741 41.9272C239.71 40.8956 238.438 40.085 236.928 39.4955C235.454 38.8691 233.741 38.556 231.788 38.556Z" fill="#152249"/>
<path d="M164.805 12.5807V27.2263H187.133V38.556H164.805V64.2549C164.805 66.4288 165.044 68.2526 165.523 69.7263C166.039 71.1633 166.758 72.3054 167.679 73.1529C168.6 74.0371 169.705 74.6635 170.995 75.0319C172.321 75.4004 173.795 75.5846 175.416 75.5846C176.595 75.5846 177.793 75.5293 179.008 75.4188C180.261 75.3083 181.459 75.1609 182.601 74.9767C183.706 74.8293 184.738 74.6635 185.696 74.4793C186.691 74.295 187.538 74.1108 188.238 73.9266L189.73 84.4825C188.662 85.1089 187.409 85.6615 185.972 86.1405C184.535 86.5826 183.006 86.9511 181.385 87.2458C179.764 87.5406 178.069 87.7616 176.3 87.909C174.569 88.0932 172.855 88.1854 171.161 88.1854C167.881 88.1854 164.897 87.7617 162.207 86.9142C159.555 86.03 157.289 84.6667 155.41 82.8245C153.494 81.0191 152.02 78.7164 150.988 75.9162C149.957 73.0792 149.441 69.6895 149.441 65.7471V38.556H135.79V27.2263H149.441V12.5807H164.805Z" fill="#152249"/>
<path d="M78.0917 111.176C76.6179 111.176 75.3284 111.084 74.2231 110.9C73.1546 110.716 71.9571 110.439 70.6307 110.071L72.5098 98.3544C73.1362 98.3544 73.9283 98.3728 74.8863 98.4097C75.8811 98.4834 76.6732 98.5202 77.2627 98.5202C78.4786 98.5202 79.5471 98.1333 80.4682 97.3596C81.4261 96.6227 82.2367 95.8121 82.8999 94.9279C83.5631 94.0436 84.0421 93.3804 84.3368 92.9383C84.6684 92.4961 85.0553 91.8698 85.4974 91.0592L89.0345 84.4825L63.7224 27.2263H80.5235L94.2296 62.2653L95.8876 68.3447L98.1535 62.3759L111.804 27.2263H128.771L98.4298 95.9779C97.7666 97.4886 96.9008 99.1281 95.8323 100.897C94.8006 102.665 93.4927 104.305 91.9084 105.815C90.3241 107.326 88.3897 108.597 86.1054 109.629C83.8579 110.66 81.1866 111.176 78.0917 111.176Z" fill="#152249"/>
<path d="M0 87.0248V6.55664H27.0254C31.4098 6.55664 35.389 6.99877 38.9629 7.88304C42.5737 8.7673 45.6502 10.1121 48.1925 11.9175C50.7347 13.7229 52.6875 16.0072 54.0507 18.7706C55.4508 21.5339 56.1508 24.7946 56.1508 28.5527C56.114 30.9845 55.6719 33.2872 54.8244 35.4611C54.0139 37.598 52.798 39.4771 51.1769 41.0982C50.2926 41.9825 49.2794 42.7931 48.1372 43.53C47.0319 44.2669 45.7976 44.8932 44.4343 45.409V45.4643C47.0871 46.2012 49.1873 47.1407 50.7347 48.2829C52.319 49.4251 53.6454 50.7515 54.7139 52.2621C55.8192 53.8832 56.6298 55.6518 57.1456 57.5677C57.6983 59.4468 57.9746 61.3995 57.9746 63.4259C57.9746 67.2946 57.3114 70.7027 55.985 73.6503C54.6586 76.5978 52.7612 79.0664 50.2926 81.056C47.824 83.0456 44.8212 84.5378 41.2841 85.5326C37.7471 86.5274 33.7679 87.0248 29.3466 87.0248H0ZM15.5852 51.5436V74.4793H29.4018C31.4283 74.4793 33.2336 74.2214 34.8179 73.7055C36.4391 73.1897 37.7839 72.4897 38.8524 71.6054C40.0314 70.6106 40.9157 69.4132 41.5052 68.0131C42.1316 66.613 42.4447 65.0471 42.4447 63.3154C42.4447 61.51 42.2052 59.8889 41.7263 58.452C41.2841 57.015 40.5657 55.7992 39.5709 54.8044C38.5761 53.7727 37.2865 52.9806 35.7022 52.4279C34.1179 51.8752 32.2388 51.5805 30.065 51.5436H15.5852ZM15.5852 40.3245H27.1359C29.4939 40.2877 31.5756 40.0113 33.381 39.4955C35.1864 38.9429 36.6417 38.1323 37.7471 37.0638C38.6682 36.2164 39.3682 35.1847 39.8472 33.9689C40.363 32.753 40.6209 31.3713 40.6209 29.8239C40.6209 28.2027 40.3999 26.7842 39.9577 25.5683C39.5524 24.3525 38.9261 23.3393 38.0787 22.5287C36.9733 21.3865 35.4811 20.5575 33.6021 20.0417C31.7599 19.5259 29.586 19.2495 27.0806 19.2127H15.5852V40.3245Z" fill="#152249"/>
</svg>
