<svg width="865" height="167" viewBox="0 0 865 167" fill="none" xmlns="http://www.w3.org/2000/svg">
<path d="M104.054 13.0403C104.424 13.061 104.795 13.0806 105.165 13.1001C106.353 13.1643 107.533 13.2448 108.714 13.3792C109.146 13.4277 109.578 13.4638 110.011 13.4984C111.525 13.6201 113.028 13.8145 114.533 14.0175C114.669 14.0357 114.805 14.0539 114.94 14.0721C117.054 14.3553 119.157 14.6735 121.254 15.0633C121.476 15.1029 121.697 15.1425 121.919 15.182C125.168 15.7715 128.377 16.5829 131.561 17.4516C131.773 17.5091 131.984 17.5662 132.196 17.6232C136.553 18.8049 140.796 20.464 144.867 22.409C144.954 22.4504 145.041 22.4919 145.13 22.5346C147.166 23.5111 149.123 24.6233 151 25.8778C150.781 26.0958 150.632 26.1633 150.349 26.2791C150.204 26.339 150.204 26.339 150.056 26.4002C149.948 26.4445 149.84 26.4889 149.729 26.5345C146.419 27.9127 143.1 29.3324 139.903 30.9563C139.367 31.226 138.825 31.4822 138.283 31.7401C137.057 32.3256 135.839 32.9258 134.624 33.5333C134.298 33.6963 133.972 33.8588 133.645 34.0213C132.444 34.6206 131.25 35.2309 130.064 35.8598C129.772 36.0144 129.479 36.1678 129.186 36.3211C127.63 37.1367 126.081 37.9629 124.555 38.8344C124.006 39.1469 123.452 39.4471 122.896 39.7466C121.9 40.285 120.921 40.8506 119.944 41.4236C119.411 41.7362 118.875 42.0438 118.339 42.3504C116.866 43.1927 115.414 44.0657 113.967 44.9509C113.682 45.1254 113.396 45.2994 113.11 45.4735C108.112 48.5242 103.212 51.7621 98.4748 55.2031C98.2529 55.3637 98.0302 55.5231 97.8072 55.6822C96.785 56.4125 95.7815 57.1648 94.7837 57.9279C94.3291 58.2754 93.871 58.6178 93.4117 58.9589C92.7538 59.4487 92.1114 59.9557 91.4727 60.4701C91.1676 60.7157 90.8596 60.9573 90.5503 61.1977C89.9587 61.6575 89.3801 62.1293 88.8101 62.6155C88.4917 62.8868 88.1696 63.1513 87.8407 63.4097C86.9268 64.1326 86.0595 64.914 85.1838 65.6821C85.0052 65.8368 84.8257 65.9901 84.6455 66.1428C83.868 66.8023 83.11 67.4779 82.3641 68.1727C82.1148 68.404 81.8631 68.6326 81.6116 68.8616C80.365 70.0006 79.1429 71.1585 77.9569 72.3603C77.6959 72.6165 77.4233 72.8487 77.1411 73.0808C76.9795 73.2124 76.9795 73.2124 76.8904 73.4208C76.8229 73.4208 76.7554 73.4208 76.6859 73.4208C76.649 73.5076 76.649 73.5076 76.6113 73.5962C76.4553 73.8758 76.2686 74.0625 76.0394 74.2864C75.9511 74.3734 75.8627 74.4605 75.7717 74.5502C75.6792 74.6404 75.5866 74.7306 75.4912 74.8236C74.9374 75.3655 74.3921 75.9057 73.8876 76.4941C73.6082 76.8161 73.3123 77.1225 73.0188 77.4316C72.5185 77.9619 72.044 78.5036 71.5885 79.0731C71.3591 79.352 71.1181 79.6158 70.8721 79.8801C70.4382 80.3508 70.0412 80.8404 69.6498 81.346C69.3397 81.7454 69.0185 82.1317 68.6872 82.5136C67.9993 83.3119 67.3787 84.1611 66.7512 85.0069C66.5814 85.2349 66.4105 85.4619 66.2387 85.6883C65.5641 86.5776 64.9122 87.4807 64.2722 88.3952C64.1121 88.6233 63.9509 88.8506 63.7894 89.0778C61.3394 92.5336 59.0089 96.0961 56.8552 99.7428C56.7922 99.8493 56.7292 99.9557 56.6643 100.065C55.7885 101.545 54.9161 103.027 54.0952 104.538C54.0409 104.638 53.9865 104.738 53.9305 104.841C53.5623 105.519 53.1962 106.198 52.8316 106.878C52.7275 107.073 52.6232 107.267 52.5187 107.461C51.8621 108.68 51.2557 109.919 50.6632 111.17C50.5186 111.473 50.3718 111.775 50.2241 112.077C46.5178 119.66 43.6716 127.726 40.8066 143.613C40.7963 143.718 40.786 143.824 40.7753 143.932C40.6973 144.785 40.6713 145.639 40.6469 146.495C40.6425 146.642 40.638 146.789 40.6335 146.936C40.6227 147.29 40.6123 147.645 40.6022 148C40.0617 147.647 39.5344 147.286 39.0242 146.89C38.9675 146.847 38.9108 146.803 38.8524 146.758C38.4321 146.431 38.0156 146.1 37.6011 145.767C37.403 145.609 37.2042 145.453 37.0037 145.298C36.2898 144.746 35.5974 144.176 34.9183 143.582C34.5533 143.263 34.1838 142.952 33.8045 142.65C33.2109 142.171 32.6591 141.65 32.1047 141.126C31.8315 140.868 31.5523 140.619 31.2698 140.371C30.4954 139.678 29.7675 138.936 29.0331 138.201C28.7765 137.944 28.5193 137.688 28.2621 137.432C28.0967 137.267 27.9313 137.102 27.766 136.936C27.6901 136.861 27.6143 136.785 27.5362 136.708C27.0667 136.237 26.6222 135.751 26.1891 135.247C26.0823 135.125 25.9753 135.004 25.8681 134.883C24.3294 133.131 22.8585 131.293 21.6894 129.271C21.5632 129.053 21.434 128.837 21.3005 128.623C20.7411 127.717 20.3446 126.746 19.9537 125.759C19.9258 125.689 19.8978 125.618 19.8691 125.546C18.9685 123.222 18.9947 120.702 19.0018 118.247C19.0019 118.12 19.002 117.992 19.0021 117.861C19.0059 115.784 19.1005 113.742 19.3404 111.68C19.3665 111.439 19.3924 111.198 19.4182 110.957C19.4778 110.412 19.5426 109.869 19.6105 109.325C19.6454 109.041 19.6777 108.756 19.7093 108.471C20.6009 100.752 23.0629 93.1993 26.0869 86.0717C26.1363 85.955 26.1856 85.8384 26.2364 85.7182C26.7226 84.5728 27.2315 83.4464 27.8011 82.3402C27.953 82.0413 28.1011 81.7407 28.2491 81.44C28.9634 79.9925 29.7127 78.5739 30.5219 77.1765C30.6909 76.8824 30.857 76.5868 31.0222 76.2906C31.7233 75.0349 32.4586 73.8104 33.2423 72.6046C33.3033 72.5104 33.3642 72.4161 33.4269 72.3191C34.4145 70.7924 35.4136 69.275 36.4926 67.8107C36.6677 67.5717 36.841 67.3319 37.0133 67.0909C38.1718 65.473 39.3982 63.9134 40.6611 62.3757C40.7915 62.2166 40.9213 62.057 41.051 61.8973C41.568 61.2616 42.0983 60.6383 42.6338 60.0182C42.85 59.7678 43.065 59.5164 43.2791 59.2642C43.7476 58.713 44.2123 58.1684 44.7337 57.6657C45.1528 57.2495 45.5288 56.7916 45.8985 56.3318C46.0091 56.2055 46.0091 56.2055 46.1221 56.0767C46.1895 56.0767 46.257 56.0767 46.3265 56.0767C46.3507 56.0194 46.375 55.9621 46.3999 55.903C46.5611 55.6147 46.7573 55.4175 46.9916 55.1841C47.0382 55.1374 47.0847 55.0908 47.1327 55.0427C47.2865 54.8888 47.441 54.7357 47.5955 54.5827C47.7033 54.4752 47.811 54.3677 47.9187 54.2602C48.1448 54.0347 48.3711 53.8096 48.5978 53.5848C48.8863 53.2986 49.1741 53.0117 49.4617 52.7245C49.6845 52.5023 49.9075 52.2803 50.1305 52.0584C50.2366 51.9528 50.3427 51.8472 50.4486 51.7415C51.0335 51.1586 51.6274 50.594 52.2553 50.0574C52.3901 49.9343 52.5243 49.8105 52.657 49.6851C52.7229 49.6231 52.7888 49.561 52.8568 49.4971C52.9239 49.4337 52.9911 49.3703 53.0603 49.3049C53.6707 48.7312 54.287 48.1656 54.913 47.6088C55.0877 47.4516 55.2623 47.2943 55.4369 47.1369C55.7329 46.8708 56.0304 46.6068 56.3313 46.3462C56.6224 46.0937 56.9071 45.835 57.19 45.5733C57.6404 45.1568 58.0951 44.7541 58.5738 44.3695C58.957 44.0615 59.3091 43.7429 59.6515 43.3907C59.9632 43.0774 60.3019 42.7951 60.6373 42.5076C60.8867 42.2932 61.1358 42.0784 61.3848 41.8636C61.4515 41.8061 61.5182 41.7485 61.587 41.6893C61.9828 41.3469 62.3729 40.9996 62.7584 40.6457C63.1136 40.3205 63.4756 40.0102 63.8509 39.7083C64.2592 39.3796 64.649 39.0381 65.0328 38.6817C65.5063 38.242 65.9958 37.8298 66.4998 37.4248C66.7678 37.2047 67.0252 36.9766 67.2817 36.7433C67.6288 36.4275 67.9831 36.1259 68.3486 35.8314C68.7398 35.5158 69.1158 35.1896 69.4858 34.8495C69.9136 34.4565 70.3547 34.0914 70.8118 33.7332C71.0748 33.5206 71.325 33.2981 71.5749 33.0704C71.9815 32.7006 72.4009 32.3553 72.8327 32.0155C73.1488 31.7627 73.4578 31.5024 73.7662 31.2404C74.3586 30.7376 74.9582 30.2443 75.5615 29.7547C75.7362 29.6123 75.9108 29.4699 76.0854 29.3274C76.1777 29.2521 76.2701 29.1767 76.3653 29.0991C76.6084 28.9003 76.8507 28.7005 77.0928 28.5005C78.0033 27.7487 78.9223 27.0103 79.8547 26.2859C80.0892 26.1033 80.3234 25.9205 80.5575 25.7375C80.6162 25.6916 80.6749 25.6457 80.7353 25.5985C81.1222 25.295 81.5045 24.9863 81.8851 24.675C82.6145 24.0786 83.3562 23.5042 84.1132 22.9434C84.533 22.6321 84.9483 22.3151 85.3634 21.9977C86.2149 21.3469 87.0721 20.7085 87.9488 20.0921C88.236 19.8885 88.5206 19.6814 88.8056 19.4748C89.73 18.8048 90.664 18.1509 91.6101 17.5118C91.6739 17.4686 91.7378 17.4254 91.8036 17.3808C92.7161 16.7641 93.6412 16.1698 94.5799 15.5936C94.7086 15.5145 94.8372 15.4352 94.9655 15.3555C98.1212 13.3974 100.355 12.8332 104.054 13.0403Z" fill="#2790F8"/>
<path d="M152.666 32C152.675 32.136 152.675 32.136 152.683 32.2747C152.705 32.619 152.727 32.9633 152.748 33.3076C152.758 33.4551 152.767 33.6026 152.776 33.7501C152.79 33.9652 152.803 34.1802 152.817 34.3952C152.829 34.5972 152.842 34.7991 152.854 35.0011C152.867 35.196 152.882 35.3908 152.897 35.5855C152.973 36.6024 152.992 37.6131 152.995 38.6324C152.996 38.8097 152.997 38.987 152.997 39.1643C152.999 39.734 153 40.3037 153 40.8734C153 40.9708 153 41.0683 153 41.1687C153.001 46.5062 152.709 51.7955 152.186 57.1088C152.154 57.4337 152.122 57.7586 152.091 58.0836C151.811 60.9809 151.427 63.8555 150.966 66.7299C150.923 66.9987 150.881 67.2677 150.839 67.5367C150.182 71.7305 149.383 75.9349 148.35 80.0544C148.278 80.3409 148.207 80.6275 148.137 80.9144C146.879 86.0927 145.358 91.1755 143.633 96.2189C143.603 96.3056 143.573 96.3924 143.543 96.4817C143.211 97.4511 142.865 98.4148 142.503 99.3739C142.463 99.4824 142.463 99.4824 142.421 99.5931C141.004 103.358 139.452 107.056 137.679 110.671C137.646 110.738 137.613 110.806 137.578 110.876C136.756 112.555 135.891 114.203 134.947 115.82C134.785 116.098 134.628 116.379 134.472 116.66C132.465 120.262 130.136 123.714 127.685 127.031C127.508 127.27 127.332 127.51 127.157 127.75C126.503 128.638 125.833 129.511 125.135 130.365C124.859 130.703 124.592 131.048 124.327 131.394C123.891 131.962 123.431 132.507 122.963 133.049C122.716 133.336 122.475 133.627 122.236 133.92C121.39 134.948 120.512 135.947 119.612 136.928C119.458 137.098 119.304 137.267 119.15 137.437C119.073 137.522 118.996 137.606 118.917 137.694C118.769 137.856 118.622 138.019 118.475 138.183C117.03 139.784 115.516 141.31 113.983 142.827C113.678 143.129 113.374 143.431 113.07 143.733C112.832 143.969 112.595 144.204 112.357 144.44C112.245 144.551 112.132 144.662 112.02 144.774C111.476 145.315 110.93 145.85 110.343 146.346C110.018 146.622 109.709 146.916 109.398 147.207C108.875 147.692 108.351 148.172 107.806 148.632C107.702 148.721 107.597 148.81 107.492 148.899C107.31 149.054 107.128 149.208 106.946 149.363C106.627 149.634 106.308 149.906 105.992 150.18C104.677 151.319 103.321 152.405 101.943 153.469C101.735 153.631 101.526 153.793 101.318 153.955C100.527 154.571 99.7296 155.177 98.9205 155.769C98.8492 155.821 98.778 155.873 98.7046 155.927C97.2503 156.985 95.764 157.997 94.2625 158.988C94.1755 159.045 94.0886 159.102 93.9989 159.162C91.711 160.671 89.3833 162.088 86.9677 163.389C86.8282 163.465 86.8282 163.465 86.686 163.541C82.1048 166.003 77.7166 167.978 72.532 166.481C68.5388 165.273 64.6843 163.401 61.0433 161.39C60.6398 161.17 60.2308 160.96 59.8221 160.75C56.3294 158.941 52.9503 156.883 49.6284 154.783C49.3818 154.628 49.1345 154.473 48.8871 154.319C46.3565 152.743 46.3565 152.743 46.0087 152.398C45.9961 152.171 45.9961 152.171 46.0156 151.877C46.0228 151.764 46.03 151.65 46.0375 151.533C46.0518 151.341 46.0518 151.341 46.0665 151.145C46.0764 151.004 46.0862 150.864 46.0961 150.723C46.2063 149.202 46.357 147.683 46.5046 146.165C46.6995 144.159 46.8828 142.152 47.0634 140.144C47.1326 139.375 47.202 138.605 47.2715 137.836C47.279 137.753 47.2865 137.67 47.2942 137.584C47.4535 135.819 47.6174 134.055 47.7834 132.291C47.8034 132.079 47.8233 131.867 47.8433 131.655C47.8529 131.552 47.8625 131.45 47.8725 131.344C47.9426 130.597 48.0108 129.849 48.0783 129.102C48.0878 128.996 48.0974 128.891 48.1072 128.782C48.1521 128.286 48.1968 127.79 48.2409 127.293C48.2566 127.12 48.2723 126.946 48.288 126.773C48.2948 126.695 48.3016 126.617 48.3086 126.537C48.3429 126.161 48.3883 125.796 48.4724 125.428C48.9114 125.707 49.3106 126.011 49.7043 126.35C50.2872 126.846 50.8846 127.319 51.4903 127.787C51.8729 128.083 52.2516 128.384 52.6299 128.685C53.8967 129.691 55.176 130.677 56.4794 131.636C56.5569 131.693 56.6344 131.75 56.7142 131.809C57.7829 132.596 58.86 133.37 59.951 134.126C60.1799 134.286 60.4079 134.446 60.6357 134.607C64.3111 137.192 68.1523 139.561 72.1237 141.671C72.2999 141.765 72.476 141.859 72.6519 141.953C73.5054 142.411 74.3633 142.857 75.2459 143.257C75.3116 143.288 75.3772 143.319 75.4449 143.351C75.8831 143.543 76.1391 143.55 76.5996 143.442C76.8375 143.344 77.072 143.238 77.3034 143.126C77.3702 143.094 77.437 143.061 77.5059 143.028C77.7239 142.923 77.9413 142.817 78.1587 142.71C78.3106 142.636 78.4625 142.563 78.6144 142.489C80.4901 141.576 82.3589 140.642 84.1688 139.606C84.449 139.445 84.7299 139.286 85.0108 139.127C89.3226 136.681 93.49 134.009 97.4205 130.993C97.6523 130.815 97.8846 130.638 98.1169 130.461C98.9353 129.836 99.7403 129.2 100.524 128.533C100.809 128.292 101.099 128.058 101.391 127.826C101.943 127.38 102.463 126.904 102.983 126.423C103.218 126.205 103.457 125.992 103.7 125.784C104.815 124.825 105.868 123.804 106.91 122.768C107.128 122.551 107.346 122.335 107.565 122.119C107.706 121.979 107.847 121.839 107.988 121.699C108.052 121.636 108.116 121.572 108.182 121.507C108.567 121.123 108.934 120.728 109.29 120.317C109.521 120.054 109.761 119.8 110.001 119.544C110.447 119.066 110.867 118.571 111.279 118.064C111.497 117.801 111.725 117.549 111.958 117.299C112.439 116.774 112.87 116.215 113.302 115.65C113.532 115.351 113.766 115.056 114 114.76C114.489 114.14 114.976 113.523 115.423 112.872C115.57 112.66 115.719 112.45 115.87 112.241C117.211 110.387 118.454 108.47 119.612 106.498C119.663 106.412 119.714 106.325 119.766 106.236C123.056 100.638 125.501 94.7028 127.311 88.4842C127.355 88.333 127.355 88.333 127.4 88.1787C127.862 86.6012 128.212 85.0044 128.543 83.3955C128.562 83.3034 128.581 83.2113 128.601 83.1164C129.651 78.0903 129.906 73.0463 129.877 67.926C129.783 67.8955 129.689 67.865 129.592 67.8336C129.218 67.7078 128.859 67.5564 128.498 67.398C128.435 67.3709 128.372 67.3438 128.308 67.3159C127.559 66.9895 126.82 66.6419 126.079 66.2976C123.464 65.0824 120.844 63.8764 118.199 62.726C117.683 62.4985 117.173 62.2594 116.661 62.0221C115.858 61.6494 115.053 61.2799 114.248 60.91C114.157 60.8682 114.066 60.8264 113.973 60.7833C112.544 60.127 111.114 59.4756 109.682 58.8278C108.37 58.2346 107.061 57.6365 105.753 57.0362C106.604 56.0267 107.607 55.2259 108.653 54.4258C108.822 54.297 108.989 54.1674 109.157 54.0375C110.481 53.0161 111.84 52.0392 113.247 51.1334C113.373 51.0519 113.498 50.9704 113.624 50.8889C115.687 49.5534 117.783 48.278 119.92 47.0624C120.059 46.9827 120.059 46.9827 120.201 46.9013C121.964 45.8924 123.762 44.9506 125.565 44.0143C125.757 43.9145 125.95 43.8145 126.142 43.7146C128.912 42.2746 131.704 40.8845 134.548 39.5935C134.923 39.422 135.298 39.2485 135.673 39.074C137.294 38.3188 138.923 37.5797 140.564 36.8676C140.767 36.7795 140.97 36.6913 141.173 36.6031C143.858 35.4362 146.564 34.3202 149.279 33.2213C149.363 33.1869 149.448 33.1526 149.536 33.1172C149.988 32.9338 150.441 32.751 150.895 32.5696C151.026 32.517 151.158 32.4642 151.289 32.4112C151.466 32.34 151.643 32.2696 151.821 32.1992C151.918 32.1603 152.015 32.1215 152.116 32.0814C152.358 32 152.358 32 152.666 32Z" fill="#2790F8"/>
<path d="M107.243 0.00132961C107.317 0.00179181 107.39 0.00225401 107.466 0.00273022C107.644 0.00391388 107.822 0.00574995 108 0.00773242C107.758 0.272986 107.5 0.444484 107.191 0.627205C107.089 0.687638 106.988 0.748071 106.883 0.810336C106.773 0.875094 106.663 0.939852 106.55 1.00657C106.376 1.11009 106.202 1.21361 106.028 1.31716C105.847 1.42457 105.666 1.53178 105.485 1.63895C103.111 3.04578 100.761 4.4875 98.4344 5.97126C98.1408 6.15829 97.847 6.34491 97.5531 6.5314C97.4548 6.59374 97.3566 6.65608 97.2554 6.72031C97.0713 6.83709 96.8872 6.95386 96.7031 7.07061C96.4315 7.24304 96.1602 7.41582 95.8888 7.58867C95.7859 7.65404 95.6829 7.71942 95.5768 7.78678C94.4821 8.48495 93.4023 9.20526 92.3222 9.9257C92.1367 10.0493 91.9512 10.1729 91.7657 10.2965C91.4007 10.5396 91.0357 10.7829 90.6708 11.0262C90.2412 11.3126 89.8113 11.5985 89.3814 11.8842C88.6893 12.3442 87.9979 12.8049 87.3122 13.2744C87.2322 13.3291 87.1522 13.3838 87.0697 13.4402C86.3132 13.9588 85.5633 14.4866 84.8149 15.0167C84.5201 15.2253 84.2247 15.433 83.9293 15.6407C83.5706 15.8931 83.2122 16.146 82.854 16.3989C82.793 16.4419 82.7321 16.4849 82.6694 16.5292C81.6762 17.231 80.6965 17.9506 79.7181 18.6726C79.474 18.8525 79.2294 19.0316 78.9846 19.2106C77.7655 20.1026 76.5611 21.013 75.3615 21.931C75.2972 21.9801 75.233 22.0292 75.1668 22.0797C74.1666 22.844 73.1728 23.6164 72.1797 24.3897C72.1122 24.4422 72.0448 24.4947 71.9752 24.5488C71.2828 25.0884 70.5952 25.6328 69.9169 26.1901C69.6251 26.4293 69.3321 26.6671 69.0388 26.9044C67.607 28.0632 66.185 29.2313 64.7899 30.4339C64.5441 30.6454 64.2982 30.8567 64.0522 31.0678C63.9926 31.1189 63.933 31.1701 63.8716 31.2228C63.5005 31.5403 63.1241 31.8501 62.7435 32.1563C62.3692 32.4592 62.0287 32.7744 61.6943 33.1199C61.4735 33.3333 61.2391 33.521 60.9987 33.7122C60.2732 34.2951 59.6059 34.9377 58.9302 35.5767C58.6535 35.8371 58.3736 36.0941 58.0928 36.3501C57.9944 36.4399 57.8959 36.5297 57.7945 36.6222C57.5999 36.7994 57.4053 36.9765 57.2108 37.1537C55.7976 38.4429 54.4102 39.7537 53.0576 41.1062C52.9152 41.2482 52.7728 41.3903 52.6304 41.5323C52.3361 41.8259 52.042 42.1197 51.7479 42.4137C51.3707 42.7908 50.9931 43.1674 50.6153 43.5439C50.323 43.8352 50.031 44.1267 49.7391 44.4184C49.5998 44.5575 49.4603 44.6966 49.3208 44.8356C49.1276 45.0282 48.9347 45.2212 48.7418 45.4142C48.6556 45.5 48.6556 45.5 48.5676 45.5876C48.278 45.872 48.278 45.872 48.06 46.2105C47.9923 46.2105 47.9246 46.2105 47.8548 46.2105C47.8298 46.2691 47.8048 46.3277 47.779 46.3881C47.6264 46.6617 47.4462 46.8393 47.2197 47.0556C46.857 47.4031 46.5259 47.7677 46.1971 48.1466C45.8908 48.4939 45.5699 48.827 45.2504 49.1622C44.7336 49.7078 44.2425 50.2628 43.7738 50.8505C43.5036 51.1766 43.218 51.485 42.9282 51.7937C42.4741 52.2783 42.0448 52.7752 41.6284 53.2928C41.3539 53.6291 41.0703 53.9566 40.7857 54.2844C40.3309 54.81 39.8945 55.3466 39.4681 55.8952C39.0888 56.3818 38.6975 56.8577 38.3031 57.3322C37.7063 58.0518 37.1279 58.782 36.5647 59.5283C36.4954 59.6199 36.4954 59.6199 36.4247 59.7133C36.0589 60.1966 35.6955 60.6816 35.3331 61.1674C35.2764 61.2433 35.2198 61.3191 35.1614 61.3972C34.2369 62.6362 33.3396 63.8922 32.4592 65.1628C32.4038 65.2425 32.3484 65.3222 32.2914 65.4044C30.6354 67.7892 29.04 70.2248 27.5626 72.7244C27.4666 72.8868 27.3703 73.0491 27.2738 73.2112C26.3245 74.8087 25.4247 76.4284 24.5562 78.0709C24.4681 78.237 24.4681 78.237 24.3782 78.4065C20.5063 85.726 17.4239 93.4496 14.1899 110.546C14.1809 110.672 14.1719 110.798 14.1626 110.928C14.0772 112.222 14.0753 113.514 14.0808 114.81C14.0813 115.024 14.0818 115.238 14.0822 115.451C14.0833 115.968 14.0851 116.484 14.0872 117C7.66891 112.034 5.63375 98.7789 4.23409 91.2863C4.22013 91.2117 4.20617 91.1371 4.19179 91.0603C3.98947 89.9765 3.80036 88.8906 3.61827 87.8032C3.60453 87.7214 3.59079 87.6396 3.57664 87.5553C2.85289 83.2384 2.23911 78.9028 1.81671 74.5458C1.77838 74.1507 1.73835 73.7558 1.69786 73.3609C1.25749 69.0522 0.94805 64.7277 0.673876 60.4055C0.668261 60.3183 0.662648 60.2311 0.656862 60.1412C0.427161 56.5414 0.286973 52.9336 0.167107 49.3286C0.16375 49.2284 0.160392 49.1281 0.156933 49.0248C0.0185589 44.8466 -0.00236627 40.6697 0.000196526 36.4897C0.000325898 36.255 0.000392754 36.0203 0.000447104 35.7856C0.000716944 34.8127 0.0021212 33.8397 0.00464429 32.8668C0.00512698 32.6628 0.00543997 32.4589 0.00575937 32.255C0.00933011 30.3482 0.0545494 28.4461 0.128618 26.541C0.318978 26.4419 0.509346 26.3428 0.699711 26.2437C0.805719 26.1885 0.911719 26.1333 1.02094 26.0764C3.60246 24.7335 6.20268 23.442 8.85275 22.2383C8.96887 22.1853 9.08498 22.1323 9.20462 22.0777C13.7103 20.0237 18.3086 18.189 22.9525 16.4722C23.3178 16.3371 23.6828 16.2012 24.0476 16.0648C27.0425 14.9459 30.0834 13.972 33.1303 13.0053C33.3275 12.9427 33.5247 12.88 33.7218 12.8172C35.4462 12.269 37.1767 11.7513 38.919 11.2626C39.2809 11.1609 39.6422 11.0575 40.0035 10.9536C42.5395 10.2251 45.0889 9.55713 47.6495 8.92045C47.7519 8.89499 47.8543 8.86953 47.9598 8.84329C51.8257 7.88301 55.6953 6.97564 59.6003 6.18828C60.2552 6.05614 60.9093 5.92022 61.5632 5.78307C61.9544 5.70163 62.3458 5.62062 62.7371 5.53977C62.903 5.5054 62.903 5.5054 63.0722 5.47034C65.2544 5.02023 67.4449 4.62953 69.6413 4.2558C69.9226 4.20782 70.2039 4.15952 70.4853 4.11114C74.0179 3.50437 77.5604 2.97059 81.1091 2.46641C81.2155 2.45129 81.3218 2.43617 81.4313 2.42059C83.9492 2.06362 86.4725 1.75956 88.9993 1.47398C89.1958 1.45173 89.1958 1.45173 89.3963 1.42903C91.9481 1.14124 94.5031 0.882076 97.0627 0.673625C97.1364 0.667578 97.2101 0.66153 97.286 0.655299C97.8466 0.609304 98.4072 0.564349 98.9679 0.519958C99.0541 0.513136 99.1402 0.506315 99.229 0.499286C103.115 0.192462 103.115 0.192462 104.647 0.139941C105.05 0.125921 105.447 0.100298 105.848 0.0569541C106.315 0.00761957 106.774 -0.00444731 107.243 0.00132961Z" fill="#2790F8"/>
<path d="M854.196 103.352C854.196 93.9197 852.796 87.564 849.995 84.2849C847.195 80.9689 843.216 79.3109 838.058 79.3109C830.91 79.3109 826.286 82.8479 824.186 89.9221C823.044 93.7907 822.473 98.4515 822.473 103.905C822.473 119.748 827.668 127.669 838.058 127.669C848.816 127.669 854.196 119.563 854.196 103.352ZM854.196 81.7426V48.6379L864.254 47.5326V134.025H854.196V124.629C850.106 131.814 844.321 135.406 836.842 135.406C828.294 135.406 822.067 132.348 818.162 126.232C814.293 120.116 812.359 112.434 812.359 103.186C812.359 92.059 815.196 83.5848 820.87 77.7634C824.849 73.6368 830.192 71.5736 836.897 71.5736C841.466 71.5736 845.169 72.5131 848.006 74.3922C850.88 76.2712 852.943 78.7214 854.196 81.7426Z" fill="#152249"/>
<path d="M795.116 134.025H787.102C779.991 134.025 774.907 133.288 771.848 131.814C770.08 130.967 768.68 129.99 767.648 128.885C764.922 126.048 763.503 119.784 763.393 110.094V55.2699H745.265V47.5326H773.451V109.597C773.451 116.929 774.114 121.424 775.441 123.082C776.804 124.74 778.499 125.698 780.525 125.956C782.552 126.177 784.615 126.287 786.715 126.287H795.613L795.116 134.025Z" fill="#152249"/>
<path d="M692.32 131.206C688.083 128.369 684.933 124.574 682.869 119.821C680.843 115.031 679.83 109.634 679.83 103.628C679.83 97.6225 680.769 92.2432 682.648 87.4903C684.564 82.7005 687.401 78.8503 691.159 75.9396C694.954 72.992 699.118 71.5182 703.65 71.5182C712.197 71.5182 718.461 74.4474 722.44 80.3056C726.419 86.1639 728.409 93.367 728.409 101.915V105.286H689.999C690.22 111.513 691.767 116.8 694.641 121.148C697.552 125.495 701.899 127.669 707.684 127.669C711.553 127.301 716.95 125.201 723.877 121.369L727.193 128.222C722.403 133.012 715.863 135.406 707.573 135.406C701.641 135.406 696.557 134.006 692.32 131.206ZM718.793 97.9357C718.056 85.5191 713.708 79.3108 705.75 79.3108C696.76 79.3108 691.62 85.5191 690.33 97.9357H718.793Z" fill="#152249"/>
<path d="M631.445 57.5007V52.0293C631.445 50.7029 632.182 49.5423 633.656 48.5475C635.167 47.5158 636.659 47 638.133 47C639.606 47 641.08 47.5158 642.554 48.5475C644.065 49.5423 644.82 50.7029 644.82 52.0293V57.5007C644.82 58.827 644.065 60.0061 642.554 61.0377C641.08 62.0325 639.606 62.5299 638.133 62.5299C636.659 62.5299 635.167 62.0325 633.656 61.0377C632.182 60.0061 631.445 58.827 631.445 57.5007ZM615.805 81.21V73.4727H643.162V126.363V134.1H633.103V126.363V81.21H615.805Z" fill="#152249"/>
<path d="M591.458 97.4383V134.025H581.4V98.7094C581.4 91.1195 580.387 85.9981 578.36 83.3453C576.334 80.6557 573.276 79.3109 569.186 79.3109C565.059 79.3109 561.467 80.7478 558.409 83.6217C555.388 86.4587 553.877 89.5168 553.877 92.7959V134.025H543.819V48.6379L553.877 47.5326V80.7478C558.593 74.6316 564.912 71.5736 572.834 71.5736C585.25 71.5736 591.458 80.1951 591.458 97.4383Z" fill="#152249"/>
<path d="M477.499 119.6C483.394 124.427 490.413 126.84 498.555 126.84C502.977 126.84 506.385 125.495 508.78 122.806C511.174 120.079 512.372 116.561 512.372 112.25C512.372 107.939 511.119 104.678 508.614 102.468C506.145 100.22 503.142 98.3778 499.605 96.9409L496.289 95.6145C490.026 93.1091 485.678 90.9905 483.246 89.2588C480.851 87.5271 479.101 85.9428 477.996 84.5059C475.38 81.1162 474.072 76.9344 474.072 71.9604C474.072 65.0705 476.412 59.7281 481.091 55.9331C485.77 52.1013 491.794 50.1854 499.163 50.1854C508.448 50.1854 515.688 52.2302 520.883 56.32L517.014 64.2783C512.224 60.5571 506.458 58.6964 499.716 58.6964C495.368 58.6964 491.905 59.8939 489.326 62.2887C486.783 64.6468 485.512 67.9628 485.512 72.2367C485.512 76.4738 487.852 79.9556 492.531 82.6821C494.3 83.6769 496.971 84.8744 500.545 86.2744C504.156 87.6745 507.748 89.3141 511.322 91.1932C514.933 93.0722 517.954 95.6145 520.385 98.82C522.817 102.025 524.033 106.115 524.033 111.089C524.033 119.011 521.73 125.053 517.125 129.217C512.556 133.343 506.292 135.406 498.334 135.406C488.423 135.406 480.17 133.214 473.575 128.83L477.499 119.6Z" fill="#152249"/>
<path d="M434.612 135.13C430.006 135.13 425.824 134.375 422.066 132.864C418.308 131.354 415.084 129.29 412.395 126.674C409.705 124.095 407.623 121.056 406.15 117.555C404.713 114.018 403.994 110.242 403.994 106.226V104.015C403.994 99.4463 404.713 95.2829 406.15 91.5247C407.586 87.7298 409.594 84.469 412.174 81.7426C414.753 79.0161 417.811 76.8975 421.348 75.3869C424.885 73.8763 428.735 73.121 432.899 73.121C437.209 73.121 441.041 73.8394 444.394 75.2764C447.784 76.6765 450.658 78.6661 453.016 81.2452C455.337 83.8243 457.105 86.9376 458.321 90.5852C459.537 94.196 460.145 98.1936 460.145 102.578V109.1H419.579V109.265C420.095 111.66 420.758 113.595 421.569 115.068C422.38 116.505 423.466 117.813 424.83 118.992C426.23 120.208 427.832 121.148 429.638 121.811C431.443 122.474 433.414 122.806 435.551 122.806C438.573 122.806 441.502 122.235 444.339 121.092C447.176 119.95 449.479 118.237 451.247 115.953L458.929 124.243C456.976 127.006 453.881 129.511 449.644 131.759C445.407 134.006 440.396 135.13 434.612 135.13ZM432.788 85.556C431.056 85.556 429.472 85.8691 428.035 86.4955C426.598 87.085 425.345 87.9508 424.277 89.093C423.172 90.2352 422.251 91.5984 421.514 93.1827C420.777 94.767 420.224 96.5356 419.856 98.4883H445.057V97.2725C445.057 95.6513 444.762 94.1223 444.173 92.6853C443.583 91.2484 442.773 89.9957 441.741 88.9272C440.71 87.8956 439.438 87.085 437.928 86.4955C436.454 85.8691 434.741 85.556 432.788 85.556Z" fill="#152249"/>
<path d="M365.805 59.5807V74.2263H388.133V85.556H365.805V111.255C365.805 113.429 366.044 115.253 366.523 116.726C367.039 118.163 367.758 119.305 368.679 120.153C369.6 121.037 370.705 121.663 371.995 122.032C373.321 122.4 374.795 122.585 376.416 122.585C377.595 122.585 378.793 122.529 380.008 122.419C381.261 122.308 382.459 122.161 383.601 121.977C384.706 121.829 385.738 121.663 386.696 121.479C387.691 121.295 388.538 121.111 389.238 120.927L390.73 131.483C389.662 132.109 388.409 132.662 386.972 133.141C385.535 133.583 384.006 133.951 382.385 134.246C380.764 134.541 379.069 134.762 377.3 134.909C375.569 135.093 373.855 135.185 372.161 135.185C368.881 135.185 365.897 134.762 363.207 133.914C360.555 133.03 358.289 131.667 356.41 129.825C354.494 128.019 353.02 125.716 351.988 122.916C350.957 120.079 350.441 116.689 350.441 112.747V85.556H336.79V74.2263H350.441V59.5807H365.805Z" fill="#152249"/>
<path d="M279.092 158.176C277.618 158.176 276.328 158.084 275.223 157.9C274.155 157.716 272.957 157.439 271.631 157.071L273.51 145.354C274.136 145.354 274.928 145.373 275.886 145.41C276.881 145.483 277.673 145.52 278.263 145.52C279.479 145.52 280.547 145.133 281.468 144.36C282.426 143.623 283.237 142.812 283.9 141.928C284.563 141.044 285.042 140.38 285.337 139.938C285.668 139.496 286.055 138.87 286.497 138.059L290.035 131.482L264.722 74.2263H281.523L295.23 109.265L296.888 115.345L299.153 109.376L312.804 74.2263H329.771L299.43 142.978C298.767 144.489 297.901 146.128 296.832 147.897C295.801 149.665 294.493 151.305 292.908 152.815C291.324 154.326 289.39 155.597 287.105 156.629C284.858 157.66 282.187 158.176 279.092 158.176Z" fill="#152249"/>
<path d="M201 134.025V53.5566H228.025C232.41 53.5566 236.389 53.9988 239.963 54.883C243.574 55.7673 246.65 57.1121 249.192 58.9175C251.735 60.7229 253.687 63.0072 255.051 65.7706C256.451 68.5339 257.151 71.7946 257.151 75.5527C257.114 77.9845 256.672 80.2872 255.824 82.4611C255.014 84.598 253.798 86.4771 252.177 88.0982C251.293 88.9825 250.279 89.7931 249.137 90.53C248.032 91.2669 246.798 91.8932 245.434 92.409V92.4643C248.087 93.2012 250.187 94.1407 251.735 95.2829C253.319 96.4251 254.645 97.7515 255.714 99.2621C256.819 100.883 257.63 102.652 258.146 104.568C258.698 106.447 258.975 108.4 258.975 110.426C258.975 114.295 258.311 117.703 256.985 120.65C255.659 123.598 253.761 126.066 251.293 128.056C248.824 130.046 245.821 131.538 242.284 132.533C238.747 133.527 234.768 134.025 230.347 134.025H201ZM216.585 98.5436V121.479H230.402C232.428 121.479 234.234 121.221 235.818 120.706C237.439 120.19 238.784 119.49 239.852 118.605C241.031 117.611 241.916 116.413 242.505 115.013C243.132 113.613 243.445 112.047 243.445 110.315C243.445 108.51 243.205 106.889 242.726 105.452C242.284 104.015 241.566 102.799 240.571 101.804C239.576 100.773 238.287 99.9806 236.702 99.4279C235.118 98.8752 233.239 98.5805 231.065 98.5436H216.585ZM216.585 87.3245H228.136C230.494 87.2877 232.576 87.0113 234.381 86.4955C236.186 85.9429 237.642 85.1323 238.747 84.0638C239.668 83.2164 240.368 82.1847 240.847 80.9689C241.363 79.753 241.621 78.3713 241.621 76.8239C241.621 75.2027 241.4 73.7842 240.958 72.5683C240.552 71.3525 239.926 70.3393 239.079 69.5287C237.973 68.3865 236.481 67.5575 234.602 67.0417C232.76 66.5259 230.586 66.2495 228.081 66.2127H216.585V87.3245Z" fill="#152249"/>
</svg>
